<?xml version="1.0" standalone="no"?>
<!DOCTYPE svg PUBLIC "-//W3C//DTD SVG 20010904//EN"
 "http://www.w3.org/TR/2001/REC-SVG-20010904/DTD/svg10.dtd">
<svg version="1.0" xmlns="http://www.w3.org/2000/svg"
 width="512.000000pt" height="512.000000pt" viewBox="0 0 512.000000 512.000000"
 preserveAspectRatio="xMidYMid meet">

<g transform="translate(0.000000,512.000000) scale(0.100000,-0.100000)"
fill="#000000" stroke="none">
<path d="M2430 5116 c-3 -3 -24 -6 -45 -6 -80 -3 -230 -22 -239 -30 -5 -5 -14
-6 -22 -3 -24 9 -345 -72 -352 -89 -2 -4 -7 -6 -12 -3 -16 10 -310 -111 -310
-128 0 -6 -3 -8 -6 -4 -8 7 -86 -31 -96 -47 -4 -6 -8 -8 -8 -4 0 7 -148 -78
-160 -91 -3 -4 -17 -12 -32 -20 -64 -33 -252 -185 -366 -296 -127 -123 -261
-283 -349 -415 -57 -87 -119 -193 -114 -199 1 -2 -2 -7 -7 -10 -13 -9 -54 -91
-45 -91 5 0 2 -4 -5 -8 -43 -28 -229 -586 -207 -622 3 -6 1 -10 -5 -10 -6 0
-11 -12 -9 -27 1 -16 -1 -35 -4 -43 -11 -27 -27 -182 -33 -325 -8 -183 25
-565 49 -565 4 0 5 -4 2 -10 -22 -36 164 -594 207 -622 7 -4 10 -8 5 -8 -9 0
32 -82 45 -91 5 -3 10 -10 10 -15 -1 -13 53 -107 111 -194 88 -132 222 -292
349 -415 114 -111 302 -263 366 -296 15 -8 29 -17 32 -20 4 -5 41 -28 131 -81
16 -10 29 -14 29 -10 0 4 4 2 8 -4 10 -16 88 -54 96 -47 3 4 6 2 6 -4 0 -17
294 -138 310 -128 5 3 10 1 12 -3 7 -17 328 -98 352 -89 8 3 17 2 22 -3 8 -7
104 -20 239 -32 146 -12 556 9 590 30 5 4 17 5 26 4 22 -4 248 52 359 88 130
42 310 120 310 133 0 6 3 8 6 4 8 -7 86 31 96 47 4 6 8 8 8 4 0 -4 13 0 29 10
90 53 127 76 131 81 3 3 17 12 32 20 64 33 252 185 366 296 127 123 261 283
349 415 58 87 112 181 111 194 0 5 5 12 10 15 13 9 54 91 45 91 -5 0 -2 4 5 8
43 28 229 586 207 622 -3 6 -2 10 2 10 12 0 31 137 45 322 9 121 9 195 0 316
-14 185 -33 322 -45 322 -4 0 -5 4 -2 10 22 36 -164 594 -207 622 -7 4 -10 8
-5 8 9 0 -32 82 -45 91 -5 3 -8 8 -7 10 5 6 -57 112 -114 199 -88 132 -222
292 -349 415 -114 111 -302 263 -366 296 -15 8 -29 16 -32 20 -12 13 -160 98
-160 91 0 -4 -4 -2 -8 4 -10 16 -88 54 -96 47 -3 -4 -6 -2 -6 4 0 13 -180 91
-310 133 -111 36 -337 92 -359 88 -9 -1 -20 0 -26 4 -8 5 -160 25 -215 28
-133 7 -326 11 -330 6z m1493 -1323 c9 -54 3 -60 -76 -67 -98 -9 -187 -51
-220 -103 -24 -39 -61 -129 -593 -1453 -166 -415 -316 -786 -332 -825 l-29
-70 -96 -3 -97 -3 -19 43 c-29 66 -56 132 -110 273 -27 72 -95 245 -150 385
-55 140 -140 361 -191 490 -50 129 -95 244 -100 255 -5 11 -48 121 -95 245
-230 597 -275 685 -380 735 -43 20 -78 28 -146 32 l-89 6 0 48 0 49 644 0
c453 0 653 -3 677 -11 46 -16 87 -56 98 -95 10 -38 0 -104 -22 -137 -25 -39
-94 -67 -164 -67 -73 0 -142 32 -237 112 -105 88 -177 107 -222 56 -15 -16
-19 -36 -18 -102 0 -113 -10 -82 284 -876 56 -151 133 -360 172 -465 38 -104
81 -219 95 -255 14 -36 36 -94 49 -130 36 -104 73 -200 80 -212 9 -15 10 -13
104 232 81 211 101 262 139 358 10 26 75 193 144 372 69 179 162 420 207 535
173 446 181 468 175 503 -3 17 -16 39 -28 47 -30 19 -106 34 -197 37 l-75 3
-3 47 -3 48 373 2 c467 4 444 6 451 -39z"/>
</g>
</svg>
